#N canvas 1680 32 476 734 10;
#X text 35 23 Translates a BPM (beats per minute) value to a time interval
between two beats in ms \$1: initial BPM value;
#X obj 109 171 inlet override_value;
#X obj 37 83 inlet bang_in;
#X obj 38 252 outlet;
#X obj 38 189 / \$1;
#X obj 38 150 60000;
#X obj 55 115 loadbang;
#X obj 38 218 spigot \$1;
#X connect 1 0 4 1;
#X connect 1 0 7 1;
#X connect 2 0 5 0;
#X connect 4 0 7 0;
#X connect 5 0 4 0;
#X connect 6 0 5 0;
#X connect 7 0 3 0;
