#N canvas 0 51 721 715 10;
#X obj 214 82 inlet override_freq;
#X obj 214 235 *~ 2;
#X obj 215 266 -~ 1;
#X text 58 234 map [0 \, 1] to [0 \, 2];
#X text 37 265 shift [0 \, 2] to [-1 \, 1];
#X obj 213 342 outlet~;
#X obj 214 204 phasor~ 440;
#X obj 214 299 *~ 1;
#X obj 263 131 \$1;
#X obj 404 283 print EXPEXTED [up/down] got;
#X obj 317 168 loadbang;
#X obj 317 198 symbol \$2;
#X obj 316 253 route up down;
#X msg 317 228 \$1;
#X msg 360 281 -1;
#X msg 316 279 1;
#X text 37 299 set the up/down setting;
#X obj 263 109 loadbang;
#X obj 224 152 spigot;
#X msg 224 128 440;
#X text 73 20 \$1 : initial frquency in Hz \, default 440;
#X text 75 43 \$2 : up / down \, default up;
#X connect 0 0 6 0;
#X connect 1 0 2 0;
#X connect 2 0 7 0;
#X connect 6 0 1 0;
#X connect 7 0 5 0;
#X connect 8 0 18 1;
#X connect 10 0 11 0;
#X connect 11 0 13 0;
#X connect 12 0 15 0;
#X connect 12 1 14 0;
#X connect 12 2 9 0;
#X connect 12 2 15 0;
#X connect 13 0 12 0;
#X connect 14 0 7 1;
#X connect 15 0 7 1;
#X connect 17 0 8 0;
#X connect 18 0 6 0;
#X connect 19 0 18 0;
