#N canvas 0 51 721 715 10;
#X obj 30 198 outlet~;
#X obj 30 167 cos~;
#X obj 30 74 inlet~;
#X text 18 17 Given input signal x \, computes sin(2*pi*x) by conversion
through cosine.;
#X obj 30 105 -~ 0.25;
#X obj 30 136 *~ -1;
#X connect 1 0 0 0;
#X connect 2 0 4 0;
#X connect 4 0 5 0;
#X connect 5 0 1 0;
