#N canvas 0 49 1364 717 10;
#X obj 106 163 *~;
#X obj 126 142 vline~;
#X msg 301 86 bang;
#X msg 301 118 0.1 \, 0 400;
#X obj 240 186 *~;
#X obj 301 154 vline~;
#X obj 475 150 vline~;
#X obj 417 116 noise~;
#X obj 456 183 *~;
#X obj 273 313 dac~;
#X msg 43 403 \; pd dsp 1;
#X obj 126 85 metro 400;
#X obj 126 52 tgl 15 0 empty empty empty 17 7 0 10 -262144 -1 -1 0
1;
#X msg 126 117 0.5 \, 0 500;
#X text 39 339 Ways to make sound.;
#X text 43 437 turn sound on.;
#X obj 39 65 osc~ 400;
#X obj 241 122 -~ 0.1;
#X obj 241 144 *~ 2;
#X obj 213 45 phasor~ 1000;
#X obj 470 87 bng 15 250 50 0 empty empty empty 17 7 0 10 -262144 -1
-1;
#X obj 552 179 delay;
#X msg 475 117 0.8 \, 0 60;
#X connect 0 0 9 0;
#X connect 1 0 0 1;
#X connect 2 0 3 0;
#X connect 3 0 5 0;
#X connect 4 0 9 0;
#X connect 4 0 9 1;
#X connect 5 0 4 1;
#X connect 6 0 8 1;
#X connect 7 0 8 0;
#X connect 8 0 9 1;
#X connect 8 0 9 0;
#X connect 11 0 13 0;
#X connect 12 0 11 0;
#X connect 13 0 1 0;
#X connect 16 0 0 0;
#X connect 17 0 18 0;
#X connect 18 0 4 0;
#X connect 19 0 17 0;
#X connect 20 0 22 0;
#X connect 22 0 6 0;
