#N canvas 0 49 1364 717 10;
#X obj 70 921 dac~;
#X obj 252 787 *~;
#X obj 365 781 *~;
#X obj 251 807 s~ ji;
#X obj 110 831 r~ ji;
#X obj 364 801 s~ ro;
#X obj 110 811 r~ ro;
#X obj 109 791 r~ lu;
#X obj 110 772 r~ pat;
#X obj 110 752 r~ ma;
#X obj 110 732 r~ nem;
#X obj 110 712 r~ pi;
#X obj 252 693 osc~ 293.3;
#X obj 365 691 osc~ 317.8;
#X obj 148 68 tgl 30 0 empty empty empty 17 7 0 10 -262144 -1 -1 0
1;
#X obj 179 238 + 1;
#X obj 247 310 bng 15 250 50 0 empty empty empty 17 7 0 10 -262144
-1 -1;
#X obj 335 310 bng 15 250 50 0 empty empty empty 17 7 0 10 -262144
-1 -1;
#X obj 427 310 bng 15 250 50 0 empty empty empty 17 7 0 10 -262144
-1 -1;
#X obj 271 762 vline~;
#X msg 271 740 0.5 \, 0 500;
#X msg 226 238 0;
#X obj 148 238 f 0;
#X obj 148 365 spigot;
#X obj 204 365 tgl 15 0 empty empty empty 17 7 0 10 -262144 -1 -1 0
1;
#X obj 148 271 select 0 1 2 3 4 5 6 7 8 9 10;
#X obj 149 390 spigot;
#X obj 204 390 tgl 15 0 empty empty empty 17 7 0 10 -262144 -1 -1 0
1;
#X obj 148 415 spigot;
#X obj 204 415 tgl 15 0 empty empty empty 17 7 0 10 -262144 -1 -1 0
1;
#X obj 148 440 spigot;
#X obj 204 440 tgl 15 0 empty empty empty 17 7 0 10 -262144 -1 -1 0
1;
#X obj 148 465 spigot;
#X obj 204 465 tgl 15 0 empty empty empty 17 7 0 10 -262144 -1 -1 0
1;
#X obj 148 490 spigot;
#X obj 204 490 tgl 15 0 empty empty empty 17 7 0 10 -262144 -1 -1 0
1;
#X obj 148 515 spigot;
#X obj 204 515 tgl 15 0 empty empty empty 17 7 0 10 -262144 -1 -1 0
1;
#X obj 148 310 bng 15 250 50 0 empty empty empty 17 7 0 10 -262144
-1 -1;
#X obj 271 713 r ji_on;
#X obj 65 382 s ji_on;
#X obj 65 407 s ro_on;
#X obj 65 432 s lu_on;
#X obj 65 457 s pat_on;
#X obj 64 482 s ma_on;
#X obj 64 507 s nem_on;
#X obj 64 532 s pi_on;
#X obj 383 713 r ro_on;
#X obj 382 757 vline~;
#X msg 383 736 0.5 \, 0 500;
#X obj 479 781 *~;
#X obj 496 757 vline~;
#X msg 497 736 0.5 \, 0 500;
#X obj 497 713 r lu_on;
#X obj 478 801 s~ lu;
#X obj 590 779 *~;
#X obj 607 755 vline~;
#X msg 608 734 0.5 \, 0 500;
#X obj 608 711 r pat_on;
#X obj 589 799 s~ pat;
#X obj 707 778 *~;
#X obj 724 754 vline~;
#X msg 725 733 0.5 \, 0 500;
#X obj 725 710 r ma_on;
#X obj 706 798 s~ ma;
#X obj 813 776 *~;
#X obj 830 752 vline~;
#X msg 831 731 0.5 \, 0 500;
#X obj 831 708 r nem_on;
#X obj 812 796 s~ nem;
#X obj 919 776 *~;
#X obj 936 752 vline~;
#X msg 937 731 0.5 \, 0 500;
#X obj 937 708 r pi_on;
#X obj 918 796 s~ pi;
#X obj 247 365 spigot;
#X obj 302 363 tgl 15 0 empty empty empty 17 7 0 10 -262144 -1 -1 0
1;
#X obj 247 390 spigot;
#X obj 303 390 tgl 15 0 empty empty empty 17 7 0 10 -262144 -1 -1 0
1;
#X obj 247 415 spigot;
#X obj 303 415 tgl 15 0 empty empty empty 17 7 0 10 -262144 -1 -1 0
1;
#X obj 247 440 spigot;
#X obj 303 440 tgl 15 0 empty empty empty 17 7 0 10 -262144 -1 -1 0
1;
#X obj 247 465 spigot;
#X obj 303 465 tgl 15 0 empty empty empty 17 7 0 10 -262144 -1 -1 0
1;
#X obj 247 490 spigot;
#X obj 303 489 tgl 15 0 empty empty empty 17 7 0 10 -262144 -1 -1 0
1;
#X obj 247 515 spigot;
#X obj 303 515 tgl 15 0 empty empty empty 17 7 0 10 -262144 -1 -1 0
1;
#X obj 335 365 spigot;
#X obj 390 364 tgl 15 0 empty empty empty 17 7 0 10 -262144 -1 -1 0
1;
#X obj 335 390 spigot;
#X obj 390 389 tgl 15 0 empty empty empty 17 7 0 10 -262144 -1 -1 0
1;
#X obj 335 414 spigot;
#X obj 390 414 tgl 15 0 empty empty empty 17 7 0 10 -262144 -1 -1 0
1;
#X obj 335 439 spigot;
#X obj 390 439 tgl 15 0 empty empty empty 17 7 0 10 -262144 -1 -1 0
1;
#X obj 334 464 spigot;
#X obj 390 464 tgl 15 0 empty empty empty 17 7 0 10 -262144 -1 -1 0
1;
#X obj 334 490 spigot;
#X obj 390 489 tgl 15 0 empty empty empty 17 7 0 10 -262144 -1 -1 0
1;
#X obj 334 515 spigot;
#X obj 390 515 tgl 15 0 empty empty empty 17 7 0 10 -262144 -1 -1 0
1;
#X obj 479 691 osc~ 342.2;
#X obj 590 689 osc~ 415.55;
#X obj 707 688 osc~ 440;
#X obj 813 686 osc~ 464.4;
#X obj 919 686 osc~ 513.3;
#X obj 427 364 spigot;
#X obj 484 363 tgl 15 0 empty empty empty 17 7 0 10 -262144 -1 -1 0
1;
#X obj 428 389 spigot;
#X obj 484 388 tgl 15 0 empty empty empty 17 7 0 10 -262144 -1 -1 0
1;
#X obj 428 413 spigot;
#X obj 484 413 tgl 15 0 empty empty empty 17 7 0 10 -262144 -1 -1 0
1;
#X obj 428 438 spigot;
#X obj 484 438 tgl 15 0 empty empty empty 17 7 0 10 -262144 -1 -1 0
1;
#X obj 428 465 spigot;
#X obj 485 464 tgl 15 0 empty empty empty 17 7 0 10 -262144 -1 -1 0
1;
#X obj 427 489 spigot;
#X obj 483 490 tgl 15 0 empty empty empty 17 7 0 10 -262144 -1 -1 0
1;
#X obj 427 514 spigot;
#X obj 483 514 tgl 15 0 empty empty empty 17 7 0 10 -262144 -1 -1 0
1;
#X obj 520 308 bng 15 250 50 0 empty empty empty 17 7 0 10 -262144
-1 -1;
#X obj 520 364 spigot;
#X obj 576 363 tgl 15 0 empty empty empty 17 7 0 10 -262144 -1 -1 0
1;
#X obj 520 389 spigot;
#X obj 576 388 tgl 15 0 empty empty empty 17 7 0 10 -262144 -1 -1 0
1;
#X obj 520 413 spigot;
#X obj 576 413 tgl 15 0 empty empty empty 17 7 0 10 -262144 -1 -1 0
1;
#X obj 520 438 spigot;
#X obj 576 438 tgl 15 0 empty empty empty 17 7 0 10 -262144 -1 -1 0
1;
#X obj 520 465 spigot;
#X obj 576 465 tgl 15 0 empty empty empty 17 7 0 10 -262144 -1 -1 0
1;
#X obj 520 489 spigot;
#X obj 576 490 tgl 15 0 empty empty empty 17 7 0 10 -262144 -1 -1 0
1;
#X obj 520 514 spigot;
#X obj 576 514 tgl 15 0 empty empty empty 17 7 0 10 -262144 -1 -1 0
1;
#X obj 615 308 bng 15 250 50 0 empty empty empty 17 7 0 10 -262144
-1 -1;
#X obj 615 364 spigot;
#X obj 671 363 tgl 15 0 empty empty empty 17 7 0 10 -262144 -1 -1 0
1;
#X obj 615 389 spigot;
#X obj 671 388 tgl 15 0 empty empty empty 17 7 0 10 -262144 -1 -1 0
1;
#X obj 615 413 spigot;
#X obj 671 413 tgl 15 0 empty empty empty 17 7 0 10 -262144 -1 -1 0
1;
#X obj 615 438 spigot;
#X obj 671 438 tgl 15 0 empty empty empty 17 7 0 10 -262144 -1 -1 0
1;
#X obj 615 465 spigot;
#X obj 671 465 tgl 15 0 empty empty empty 17 7 0 10 -262144 -1 -1 0
1;
#X obj 615 489 spigot;
#X obj 671 490 tgl 15 0 empty empty empty 17 7 0 10 -262144 -1 -1 0
1;
#X obj 615 514 spigot;
#X obj 671 514 tgl 15 0 empty empty empty 17 7 0 10 -262144 -1 -1 0
1;
#X obj 711 309 bng 15 250 50 0 empty empty empty 17 7 0 10 -262144
-1 -1;
#X obj 711 364 spigot;
#X obj 767 364 tgl 15 0 empty empty empty 17 7 0 10 -262144 -1 -1 0
1;
#X obj 712 389 spigot;
#X obj 767 389 tgl 15 0 empty empty empty 17 7 0 10 -262144 -1 -1 0
1;
#X obj 711 414 spigot;
#X obj 767 414 tgl 15 0 empty empty empty 17 7 0 10 -262144 -1 -1 0
1;
#X obj 711 439 spigot;
#X obj 767 438 tgl 15 0 empty empty empty 17 7 0 10 -262144 -1 -1 0
1;
#X obj 711 465 spigot;
#X obj 767 465 tgl 15 0 empty empty empty 17 7 0 10 -262144 -1 -1 0
1;
#X obj 711 489 spigot;
#X obj 767 490 tgl 15 0 empty empty empty 17 7 0 10 -262144 -1 -1 0
1;
#X obj 711 514 spigot;
#X obj 767 514 tgl 15 0 empty empty empty 17 7 0 10 -262144 -1 -1 0
1;
#X obj 804 310 bng 15 250 50 0 empty empty empty 17 7 0 10 -262144
-1 -1;
#X obj 804 364 spigot;
#X obj 860 365 tgl 15 0 empty empty empty 17 7 0 10 -262144 -1 -1 0
1;
#X obj 803 388 spigot;
#X obj 860 390 tgl 15 0 empty empty empty 17 7 0 10 -262144 -1 -1 0
1;
#X obj 804 414 spigot;
#X obj 860 415 tgl 15 0 empty empty empty 17 7 0 10 -262144 -1 -1 0
1;
#X obj 804 439 spigot;
#X obj 860 439 tgl 15 0 empty empty empty 17 7 0 10 -262144 -1 -1 0
1;
#X obj 804 465 spigot;
#X obj 860 466 tgl 15 0 empty empty empty 17 7 0 10 -262144 -1 -1 0
1;
#X obj 804 489 spigot;
#X obj 860 491 tgl 15 0 empty empty empty 17 7 0 10 -262144 -1 -1 0
1;
#X obj 804 514 spigot;
#X obj 860 515 tgl 15 0 empty empty empty 17 7 0 10 -262144 -1 -1 0
1;
#X obj 904 310 bng 15 250 50 0 empty empty empty 17 7 0 10 -262144
-1 -1;
#X obj 904 364 spigot;
#X obj 960 365 tgl 15 0 empty empty empty 17 7 0 10 -262144 -1 -1 0
1;
#X obj 903 388 spigot;
#X obj 960 390 tgl 15 0 empty empty empty 17 7 0 10 -262144 -1 -1 0
1;
#X obj 904 414 spigot;
#X obj 960 415 tgl 15 0 empty empty empty 17 7 0 10 -262144 -1 -1 0
1;
#X obj 904 439 spigot;
#X obj 960 439 tgl 15 0 empty empty empty 17 7 0 10 -262144 -1 -1 0
1;
#X obj 904 465 spigot;
#X obj 960 466 tgl 15 0 empty empty empty 17 7 0 10 -262144 -1 -1 0
1;
#X obj 904 489 spigot;
#X obj 960 491 tgl 15 0 empty empty empty 17 7 0 10 -262144 -1 -1 0
1;
#X obj 904 514 spigot;
#X obj 960 515 tgl 15 0 empty empty empty 17 7 0 10 -262144 -1 -1 0
1;
#X obj 1001 311 bng 15 250 50 0 empty empty empty 17 7 0 10 -262144
-1 -1;
#X obj 1001 365 spigot;
#X obj 1057 366 tgl 15 0 empty empty empty 17 7 0 10 -262144 -1 -1
0 1;
#X obj 1000 389 spigot;
#X obj 1057 391 tgl 15 0 empty empty empty 17 7 0 10 -262144 -1 -1
0 1;
#X obj 1001 415 spigot;
#X obj 1057 416 tgl 15 0 empty empty empty 17 7 0 10 -262144 -1 -1
0 1;
#X obj 1001 440 spigot;
#X obj 1057 440 tgl 15 0 empty empty empty 17 7 0 10 -262144 -1 -1
0 1;
#X obj 1001 466 spigot;
#X obj 1057 467 tgl 15 0 empty empty empty 17 7 0 10 -262144 -1 -1
0 1;
#X obj 1001 490 spigot;
#X obj 1057 492 tgl 15 0 empty empty empty 17 7 0 10 -262144 -1 -1
0 1;
#X obj 1001 515 spigot;
#X obj 1057 516 tgl 15 0 empty empty empty 17 7 0 10 -262144 -1 -1
0 1;
#X obj 1100 312 bng 15 250 50 0 empty empty empty 17 7 0 10 -262144
-1 -1;
#X obj 1100 366 spigot;
#X obj 1156 367 tgl 15 0 empty empty empty 17 7 0 10 -262144 -1 -1
0 1;
#X obj 1099 390 spigot;
#X obj 1156 392 tgl 15 0 empty empty empty 17 7 0 10 -262144 -1 -1
0 1;
#X obj 1100 416 spigot;
#X obj 1156 417 tgl 15 0 empty empty empty 17 7 0 10 -262144 -1 -1
0 1;
#X obj 1100 441 spigot;
#X obj 1156 441 tgl 15 0 empty empty empty 17 7 0 10 -262144 -1 -1
0 1;
#X obj 1100 467 spigot;
#X obj 1156 468 tgl 15 0 empty empty empty 17 7 0 10 -262144 -1 -1
0 1;
#X obj 1100 491 spigot;
#X obj 1156 493 tgl 15 0 empty empty empty 17 7 0 10 -262144 -1 -1
0 1;
#X obj 1100 516 spigot;
#X obj 1156 517 tgl 15 0 empty empty empty 17 7 0 10 -262144 -1 -1
0 1;
#X obj 1195 312 bng 15 250 50 0 empty empty empty 17 7 0 10 -262144
-1 -1;
#X obj 1195 366 spigot;
#X obj 1251 367 tgl 15 0 empty empty empty 17 7 0 10 -262144 -1 -1
0 1;
#X obj 1194 390 spigot;
#X obj 1252 393 tgl 15 0 empty empty empty 17 7 0 10 -262144 -1 -1
0 1;
#X obj 1195 416 spigot;
#X obj 1251 417 tgl 15 0 empty empty empty 17 7 0 10 -262144 -1 -1
0 1;
#X obj 1195 441 spigot;
#X obj 1251 441 tgl 15 0 empty empty empty 17 7 0 10 -262144 -1 -1
0 1;
#X obj 1195 467 spigot;
#X obj 1251 468 tgl 15 0 empty empty empty 17 7 0 10 -262144 -1 -1
0 1;
#X obj 1195 491 spigot;
#X obj 1251 493 tgl 15 0 empty empty empty 17 7 0 10 -262144 -1 -1
0 1;
#X obj 1195 516 spigot;
#X obj 1251 517 tgl 15 0 empty empty empty 17 7 0 10 -262144 -1 -1
0 1;
#X obj 204 132 hsl 128 15 20 1000 0 1 empty empty Tempo -2 -8 0 10
-262144 -1 -1 2800 0;
#X obj 148 213 metro 10;
#X obj 1046 774 *~;
#X obj 1064 750 vline~;
#X obj 1046 686 noise~;
#X obj 1047 795 s~ shake;
#X obj 1064 706 r shake_on;
#X obj 147 586 spigot;
#X obj 203 586 tgl 15 0 empty empty empty 17 7 0 10 -262144 -1 -1 0
1;
#X obj 246 586 spigot;
#X obj 301 584 tgl 15 0 empty empty empty 17 7 0 10 -262144 -1 -1 0
1;
#X obj 334 586 spigot;
#X obj 389 585 tgl 15 0 empty empty empty 17 7 0 10 -262144 -1 -1 0
1;
#X obj 426 585 spigot;
#X obj 483 584 tgl 15 0 empty empty empty 17 7 0 10 -262144 -1 -1 0
1;
#X obj 519 585 spigot;
#X obj 575 584 tgl 15 0 empty empty empty 17 7 0 10 -262144 -1 -1 0
1;
#X obj 614 585 spigot;
#X obj 670 584 tgl 15 0 empty empty empty 17 7 0 10 -262144 -1 -1 0
1;
#X obj 710 585 spigot;
#X obj 766 585 tgl 15 0 empty empty empty 17 7 0 10 -262144 -1 -1 0
1;
#X obj 803 585 spigot;
#X obj 859 586 tgl 15 0 empty empty empty 17 7 0 10 -262144 -1 -1 0
1;
#X obj 903 585 spigot;
#X obj 959 586 tgl 15 0 empty empty empty 17 7 0 10 -262144 -1 -1 0
1;
#X obj 1000 586 spigot;
#X obj 1056 587 tgl 15 0 empty empty empty 17 7 0 10 -262144 -1 -1
0 1;
#X obj 1099 587 spigot;
#X obj 1155 588 tgl 15 0 empty empty empty 17 7 0 10 -262144 -1 -1
0 1;
#X obj 1194 587 spigot;
#X obj 1250 588 tgl 15 0 empty empty empty 17 7 0 10 -262144 -1 -1
0 1;
#X obj 64 603 s shake_on;
#X obj 111 857 r~ shake;
#X msg 1064 728 0.4 \, 0 120;
#X obj 148 636 spigot;
#X obj 204 636 tgl 15 0 empty empty empty 17 7 0 10 -262144 -1 -1 0
1;
#X obj 247 636 spigot;
#X obj 302 634 tgl 15 0 empty empty empty 17 7 0 10 -262144 -1 -1 0
1;
#X obj 335 636 spigot;
#X obj 390 635 tgl 15 0 empty empty empty 17 7 0 10 -262144 -1 -1 0
1;
#X obj 427 635 spigot;
#X obj 484 634 tgl 15 0 empty empty empty 17 7 0 10 -262144 -1 -1 0
1;
#X obj 520 635 spigot;
#X obj 576 634 tgl 15 0 empty empty empty 17 7 0 10 -262144 -1 -1 0
1;
#X obj 615 635 spigot;
#X obj 671 634 tgl 15 0 empty empty empty 17 7 0 10 -262144 -1 -1 0
1;
#X obj 711 635 spigot;
#X obj 767 635 tgl 15 0 empty empty empty 17 7 0 10 -262144 -1 -1 0
1;
#X obj 804 635 spigot;
#X obj 860 636 tgl 15 0 empty empty empty 17 7 0 10 -262144 -1 -1 0
1;
#X obj 904 635 spigot;
#X obj 960 636 tgl 15 0 empty empty empty 17 7 0 10 -262144 -1 -1 0
1;
#X obj 1001 636 spigot;
#X obj 1057 637 tgl 15 0 empty empty empty 17 7 0 10 -262144 -1 -1
0 1;
#X obj 1100 637 spigot;
#X obj 1156 638 tgl 15 0 empty empty empty 17 7 0 10 -262144 -1 -1
0 1;
#X obj 1195 637 spigot;
#X obj 1251 638 tgl 15 0 empty empty empty 17 7 0 10 -262144 -1 -1
0 1;
#X obj 65 653 s gango_on;
#X obj 1166 775 *~;
#X obj 1183 751 vline~;
#X msg 1184 730 0.5 \, 0 500;
#X obj 1165 795 s~ gango;
#X obj 1184 707 r gango_on;
#X obj 112 883 r~ gango;
#X obj 1166 685 osc~ 613.3;
#X text 352 124 Slide to the right to slow down. Left to speed up.
;
#X text 195 73 Toggle the player. [X] means on.;
#X text 129 914 Output to soundcard.;
#X text 1046 825 Percussion Instruments;
#X text 63 310 beats:;
#X text 166 310 1;
#X text 269 311 2;
#X text 356 309 3;
#X text 446 308 4;
#X text 538 308 5;
#X text 631 308 6;
#X text 731 307 7;
#X text 823 308 8;
#X text 923 309 9;
#X text 1018 310 10;
#X text 1117 311 11;
#X text 1211 311 12;
#X text 249 838 Notes.;
#X text 614 220 Press the below toggle boxes to play the note on the
beat.;
#X connect 1 0 3 0;
#X connect 2 0 5 0;
#X connect 4 0 0 0;
#X connect 4 0 0 1;
#X connect 6 0 0 0;
#X connect 6 0 0 1;
#X connect 7 0 0 0;
#X connect 7 0 0 1;
#X connect 8 0 0 0;
#X connect 8 0 0 1;
#X connect 9 0 0 0;
#X connect 9 0 0 1;
#X connect 10 0 0 0;
#X connect 10 0 0 1;
#X connect 11 0 0 0;
#X connect 11 0 0 1;
#X connect 12 0 1 0;
#X connect 13 0 2 0;
#X connect 14 0 243 0;
#X connect 15 0 22 1;
#X connect 16 0 75 0;
#X connect 16 0 77 0;
#X connect 16 0 79 0;
#X connect 16 0 81 0;
#X connect 16 0 83 0;
#X connect 16 0 85 0;
#X connect 16 0 87 0;
#X connect 16 0 251 0;
#X connect 16 0 278 0;
#X connect 17 0 89 0;
#X connect 17 0 91 0;
#X connect 17 0 93 0;
#X connect 17 0 95 0;
#X connect 17 0 97 0;
#X connect 17 0 99 0;
#X connect 17 0 101 0;
#X connect 17 0 253 0;
#X connect 17 0 280 0;
#X connect 18 0 108 0;
#X connect 18 0 110 0;
#X connect 18 0 112 0;
#X connect 18 0 114 0;
#X connect 18 0 116 0;
#X connect 18 0 118 0;
#X connect 18 0 120 0;
#X connect 18 0 255 0;
#X connect 18 0 282 0;
#X connect 19 0 1 1;
#X connect 20 0 19 0;
#X connect 21 0 22 1;
#X connect 22 0 15 0;
#X connect 22 0 25 0;
#X connect 23 0 40 0;
#X connect 24 0 23 1;
#X connect 25 0 38 0;
#X connect 25 1 16 0;
#X connect 25 2 17 0;
#X connect 25 3 18 0;
#X connect 25 4 122 0;
#X connect 25 5 137 0;
#X connect 25 6 152 0;
#X connect 25 7 167 0;
#X connect 25 8 182 0;
#X connect 25 9 197 0;
#X connect 25 10 212 0;
#X connect 25 11 21 0;
#X connect 25 11 227 0;
#X connect 26 0 41 0;
#X connect 27 0 26 1;
#X connect 28 0 42 0;
#X connect 29 0 28 1;
#X connect 30 0 43 0;
#X connect 31 0 30 1;
#X connect 32 0 44 0;
#X connect 33 0 32 1;
#X connect 34 0 45 0;
#X connect 35 0 34 1;
#X connect 36 0 46 0;
#X connect 37 0 36 1;
#X connect 38 0 23 0;
#X connect 38 0 26 0;
#X connect 38 0 28 0;
#X connect 38 0 30 0;
#X connect 38 0 32 0;
#X connect 38 0 34 0;
#X connect 38 0 36 0;
#X connect 38 0 249 0;
#X connect 38 0 276 0;
#X connect 39 0 20 0;
#X connect 47 0 49 0;
#X connect 48 0 2 1;
#X connect 49 0 48 0;
#X connect 50 0 54 0;
#X connect 51 0 50 1;
#X connect 52 0 51 0;
#X connect 53 0 52 0;
#X connect 55 0 59 0;
#X connect 56 0 55 1;
#X connect 57 0 56 0;
#X connect 58 0 57 0;
#X connect 60 0 64 0;
#X connect 61 0 60 1;
#X connect 62 0 61 0;
#X connect 63 0 62 0;
#X connect 65 0 69 0;
#X connect 66 0 65 1;
#X connect 67 0 66 0;
#X connect 68 0 67 0;
#X connect 70 0 74 0;
#X connect 71 0 70 1;
#X connect 72 0 71 0;
#X connect 73 0 72 0;
#X connect 75 0 40 0;
#X connect 76 0 75 1;
#X connect 77 0 41 0;
#X connect 78 0 77 1;
#X connect 79 0 42 0;
#X connect 80 0 79 1;
#X connect 81 0 43 0;
#X connect 82 0 81 1;
#X connect 83 0 44 0;
#X connect 84 0 83 1;
#X connect 85 0 45 0;
#X connect 86 0 85 1;
#X connect 87 0 46 0;
#X connect 88 0 87 1;
#X connect 89 0 40 0;
#X connect 90 0 89 1;
#X connect 91 0 41 0;
#X connect 92 0 91 1;
#X connect 93 0 42 0;
#X connect 94 0 93 1;
#X connect 95 0 43 0;
#X connect 96 0 95 1;
#X connect 97 0 44 0;
#X connect 98 0 97 1;
#X connect 99 0 45 0;
#X connect 100 0 99 1;
#X connect 101 0 46 0;
#X connect 102 0 101 1;
#X connect 103 0 50 0;
#X connect 104 0 55 0;
#X connect 105 0 60 0;
#X connect 106 0 65 0;
#X connect 107 0 70 0;
#X connect 108 0 40 0;
#X connect 109 0 108 1;
#X connect 110 0 41 0;
#X connect 111 0 110 1;
#X connect 112 0 42 0;
#X connect 113 0 112 1;
#X connect 114 0 43 0;
#X connect 115 0 114 1;
#X connect 116 0 44 0;
#X connect 117 0 116 1;
#X connect 118 0 45 0;
#X connect 119 0 118 1;
#X connect 120 0 46 0;
#X connect 121 0 120 1;
#X connect 122 0 123 0;
#X connect 122 0 125 0;
#X connect 122 0 127 0;
#X connect 122 0 129 0;
#X connect 122 0 131 0;
#X connect 122 0 133 0;
#X connect 122 0 135 0;
#X connect 122 0 257 0;
#X connect 122 0 284 0;
#X connect 123 0 40 0;
#X connect 124 0 123 1;
#X connect 125 0 41 0;
#X connect 126 0 125 1;
#X connect 127 0 42 0;
#X connect 128 0 127 1;
#X connect 129 0 43 0;
#X connect 130 0 129 1;
#X connect 131 0 44 0;
#X connect 132 0 131 1;
#X connect 133 0 45 0;
#X connect 134 0 133 1;
#X connect 135 0 46 0;
#X connect 136 0 135 1;
#X connect 137 0 138 0;
#X connect 137 0 140 0;
#X connect 137 0 142 0;
#X connect 137 0 144 0;
#X connect 137 0 146 0;
#X connect 137 0 148 0;
#X connect 137 0 150 0;
#X connect 137 0 259 0;
#X connect 137 0 286 0;
#X connect 138 0 40 0;
#X connect 139 0 138 1;
#X connect 140 0 41 0;
#X connect 141 0 140 1;
#X connect 142 0 42 0;
#X connect 143 0 142 1;
#X connect 144 0 43 0;
#X connect 145 0 144 1;
#X connect 146 0 44 0;
#X connect 147 0 146 1;
#X connect 148 0 45 0;
#X connect 149 0 148 1;
#X connect 150 0 46 0;
#X connect 151 0 150 1;
#X connect 152 0 153 0;
#X connect 152 0 155 0;
#X connect 152 0 157 0;
#X connect 152 0 159 0;
#X connect 152 0 161 0;
#X connect 152 0 163 0;
#X connect 152 0 165 0;
#X connect 152 0 261 0;
#X connect 152 0 288 0;
#X connect 153 0 40 0;
#X connect 154 0 153 1;
#X connect 155 0 41 0;
#X connect 156 0 155 1;
#X connect 157 0 42 0;
#X connect 158 0 157 1;
#X connect 159 0 43 0;
#X connect 160 0 159 1;
#X connect 161 0 44 0;
#X connect 162 0 161 1;
#X connect 163 0 45 0;
#X connect 164 0 163 1;
#X connect 165 0 46 0;
#X connect 166 0 165 1;
#X connect 167 0 168 0;
#X connect 167 0 170 0;
#X connect 167 0 172 0;
#X connect 167 0 174 0;
#X connect 167 0 176 0;
#X connect 167 0 178 0;
#X connect 167 0 180 0;
#X connect 167 0 263 0;
#X connect 167 0 290 0;
#X connect 168 0 40 0;
#X connect 169 0 168 1;
#X connect 170 0 41 0;
#X connect 171 0 170 1;
#X connect 172 0 42 0;
#X connect 173 0 172 1;
#X connect 174 0 43 0;
#X connect 175 0 174 1;
#X connect 176 0 44 0;
#X connect 177 0 176 1;
#X connect 178 0 45 0;
#X connect 179 0 178 1;
#X connect 180 0 46 0;
#X connect 181 0 180 1;
#X connect 182 0 183 0;
#X connect 182 0 185 0;
#X connect 182 0 187 0;
#X connect 182 0 189 0;
#X connect 182 0 191 0;
#X connect 182 0 193 0;
#X connect 182 0 195 0;
#X connect 182 0 265 0;
#X connect 182 0 292 0;
#X connect 183 0 40 0;
#X connect 184 0 183 1;
#X connect 185 0 41 0;
#X connect 186 0 185 1;
#X connect 187 0 42 0;
#X connect 188 0 187 1;
#X connect 189 0 43 0;
#X connect 190 0 189 1;
#X connect 191 0 44 0;
#X connect 192 0 191 1;
#X connect 193 0 45 0;
#X connect 194 0 193 1;
#X connect 195 0 46 0;
#X connect 196 0 195 1;
#X connect 197 0 198 0;
#X connect 197 0 200 0;
#X connect 197 0 202 0;
#X connect 197 0 204 0;
#X connect 197 0 206 0;
#X connect 197 0 208 0;
#X connect 197 0 210 0;
#X connect 197 0 267 0;
#X connect 197 0 294 0;
#X connect 198 0 40 0;
#X connect 199 0 198 1;
#X connect 200 0 41 0;
#X connect 201 0 200 1;
#X connect 202 0 42 0;
#X connect 203 0 202 1;
#X connect 204 0 43 0;
#X connect 205 0 204 1;
#X connect 206 0 44 0;
#X connect 207 0 206 1;
#X connect 208 0 45 0;
#X connect 209 0 208 1;
#X connect 210 0 46 0;
#X connect 211 0 210 1;
#X connect 212 0 213 0;
#X connect 212 0 215 0;
#X connect 212 0 217 0;
#X connect 212 0 219 0;
#X connect 212 0 221 0;
#X connect 212 0 223 0;
#X connect 212 0 225 0;
#X connect 212 0 269 0;
#X connect 212 0 296 0;
#X connect 213 0 40 0;
#X connect 214 0 213 1;
#X connect 215 0 41 0;
#X connect 216 0 215 1;
#X connect 217 0 42 0;
#X connect 218 0 217 1;
#X connect 219 0 43 0;
#X connect 220 0 219 1;
#X connect 221 0 44 0;
#X connect 222 0 221 1;
#X connect 223 0 45 0;
#X connect 224 0 223 1;
#X connect 225 0 46 0;
#X connect 226 0 225 1;
#X connect 227 0 228 0;
#X connect 227 0 230 0;
#X connect 227 0 232 0;
#X connect 227 0 234 0;
#X connect 227 0 236 0;
#X connect 227 0 238 0;
#X connect 227 0 240 0;
#X connect 227 0 271 0;
#X connect 227 0 298 0;
#X connect 228 0 40 0;
#X connect 229 0 228 1;
#X connect 230 0 41 0;
#X connect 231 0 230 1;
#X connect 232 0 42 0;
#X connect 233 0 232 1;
#X connect 234 0 43 0;
#X connect 235 0 234 1;
#X connect 236 0 44 0;
#X connect 237 0 236 1;
#X connect 238 0 45 0;
#X connect 239 0 238 1;
#X connect 240 0 46 0;
#X connect 241 0 240 1;
#X connect 242 0 243 1;
#X connect 243 0 22 0;
#X connect 244 0 247 0;
#X connect 245 0 244 1;
#X connect 246 0 244 0;
#X connect 248 0 275 0;
#X connect 249 0 273 0;
#X connect 250 0 249 1;
#X connect 251 0 273 0;
#X connect 252 0 251 1;
#X connect 253 0 273 0;
#X connect 254 0 253 1;
#X connect 255 0 273 0;
#X connect 256 0 255 1;
#X connect 257 0 273 0;
#X connect 258 0 257 1;
#X connect 259 0 273 0;
#X connect 260 0 259 1;
#X connect 261 0 273 0;
#X connect 262 0 261 1;
#X connect 263 0 273 0;
#X connect 264 0 263 1;
#X connect 265 0 273 0;
#X connect 266 0 265 1;
#X connect 267 0 273 0;
#X connect 268 0 267 1;
#X connect 269 0 273 0;
#X connect 270 0 269 1;
#X connect 271 0 273 0;
#X connect 272 0 271 1;
#X connect 274 0 0 1;
#X connect 274 0 0 0;
#X connect 275 0 245 0;
#X connect 276 0 300 0;
#X connect 277 0 276 1;
#X connect 278 0 300 0;
#X connect 279 0 278 1;
#X connect 280 0 300 0;
#X connect 281 0 280 1;
#X connect 282 0 300 0;
#X connect 283 0 282 1;
#X connect 284 0 300 0;
#X connect 285 0 284 1;
#X connect 286 0 300 0;
#X connect 287 0 286 1;
#X connect 288 0 300 0;
#X connect 289 0 288 1;
#X connect 290 0 300 0;
#X connect 291 0 290 1;
#X connect 292 0 300 0;
#X connect 293 0 292 1;
#X connect 294 0 300 0;
#X connect 295 0 294 1;
#X connect 296 0 300 0;
#X connect 297 0 296 1;
#X connect 298 0 300 0;
#X connect 299 0 298 1;
#X connect 301 0 304 0;
#X connect 302 0 301 1;
#X connect 303 0 302 0;
#X connect 305 0 303 0;
#X connect 306 0 0 1;
#X connect 306 0 0 0;
#X connect 307 0 301 0;
#X coords 0 0 1 1 85 60 0;
